<mxfile host="app.diagrams.net" agent="Mozilla/5.0 (Windows NT 10.0; Win64; x64) AppleWebKit/537.36 (KHTML, like Gecko) Chrome/133.0.0.0 Safari/537.36 Edg/133.0.0.0" version="26.0.16">
  <diagram name="Страница — 1" id="PAf8wFvdSI3v_j7u4Xwl">
    <mxGraphModel dx="304" dy="643" grid="1" gridSize="10" guides="1" tooltips="1" connect="1" arrows="1" fold="1" page="1" pageScale="1" pageWidth="827" pageHeight="1169" math="0" shadow="0">
      <root>
        <mxCell id="0" />
        <mxCell id="1" parent="0" />
        <mxCell id="TCglNHnMrJd_XwDVBPuO-1" value="Класс Program" style="swimlane;whiteSpace=wrap;html=1;" vertex="1" parent="1">
          <mxGeometry x="120" y="70" width="160" height="130" as="geometry" />
        </mxCell>
        <mxCell id="TCglNHnMrJd_XwDVBPuO-3" value="+ static void Main (string[] args)" style="text;html=1;align=left;verticalAlign=middle;whiteSpace=wrap;rounded=0;" vertex="1" parent="TCglNHnMrJd_XwDVBPuO-1">
          <mxGeometry x="10" y="30" width="100" height="30" as="geometry" />
        </mxCell>
        <mxCell id="TCglNHnMrJd_XwDVBPuO-5" value="Перечисление Role" style="swimlane;whiteSpace=wrap;html=1;" vertex="1" parent="1">
          <mxGeometry x="120" y="240" width="160" height="120" as="geometry" />
        </mxCell>
        <mxCell id="TCglNHnMrJd_XwDVBPuO-6" value="Customer" style="text;html=1;align=left;verticalAlign=middle;whiteSpace=wrap;rounded=0;" vertex="1" parent="TCglNHnMrJd_XwDVBPuO-5">
          <mxGeometry x="10" y="30" width="60" height="30" as="geometry" />
        </mxCell>
        <mxCell id="TCglNHnMrJd_XwDVBPuO-7" value="Admin" style="text;html=1;align=left;verticalAlign=middle;whiteSpace=wrap;rounded=0;" vertex="1" parent="TCglNHnMrJd_XwDVBPuO-5">
          <mxGeometry x="10" y="60" width="60" height="30" as="geometry" />
        </mxCell>
        <mxCell id="TCglNHnMrJd_XwDVBPuO-8" value="Класс&amp;nbsp;ShopSystem" style="swimlane;whiteSpace=wrap;html=1;" vertex="1" parent="1">
          <mxGeometry x="110" y="400" width="160" height="460" as="geometry" />
        </mxCell>
        <mxCell id="TCglNHnMrJd_XwDVBPuO-9" value="List&amp;lt;User&amp;gt; Users" style="text;html=1;align=left;verticalAlign=middle;whiteSpace=wrap;rounded=0;" vertex="1" parent="TCglNHnMrJd_XwDVBPuO-8">
          <mxGeometry x="10" y="30" width="130" height="30" as="geometry" />
        </mxCell>
        <mxCell id="TCglNHnMrJd_XwDVBPuO-10" value="List&amp;lt;Product&amp;gt; Products" style="text;html=1;align=left;verticalAlign=middle;whiteSpace=wrap;rounded=0;" vertex="1" parent="TCglNHnMrJd_XwDVBPuO-8">
          <mxGeometry x="10" y="60" width="140" height="30" as="geometry" />
        </mxCell>
        <mxCell id="TCglNHnMrJd_XwDVBPuO-12" value="&lt;span style=&quot;color: rgba(0, 0, 0, 0); font-family: monospace; font-size: 0px; text-wrap-mode: nowrap;&quot;&gt;%3CmxGraphModel%3E%3Croot%3E%3CmxCell%20id%3D%220%22%2F%3E%3CmxCell%20id%3D%221%22%20parent%3D%220%22%2F%3E%3CmxCell%20id%3D%222%22%20value%3D%22List%26amp%3Blt%3BProduct%26amp%3Bgt%3B%20Products%22%20style%3D%22text%3Bhtml%3D1%3Balign%3Dleft%3BverticalAlign%3Dmiddle%3BwhiteSpace%3Dwrap%3Brounded%3D0%3B%22%20vertex%3D%221%22%20parent%3D%221%22%3E%3CmxGeometry%20x%3D%22130%22%20y%3D%22460%22%20width%3D%22140%22%20height%3D%2230%22%20as%3D%22geometry%22%2F%3E%3C%2FmxCell%3E%3C%2Froot%3E%3C%2FmxGraphModel%3E&lt;/span&gt;List&amp;lt;string&amp;gt; Blacklist" style="text;html=1;align=left;verticalAlign=middle;whiteSpace=wrap;rounded=0;" vertex="1" parent="TCglNHnMrJd_XwDVBPuO-8">
          <mxGeometry x="10" y="90" width="140" height="30" as="geometry" />
        </mxCell>
        <mxCell id="TCglNHnMrJd_XwDVBPuO-13" value="&lt;strong data-end=&quot;1007&quot; data-start=&quot;984&quot;&gt;User LoggedInUser&lt;/strong&gt;" style="text;html=1;align=left;verticalAlign=middle;whiteSpace=wrap;rounded=0;fontStyle=0" vertex="1" parent="TCglNHnMrJd_XwDVBPuO-8">
          <mxGeometry x="10" y="120" width="140" height="30" as="geometry" />
        </mxCell>
        <mxCell id="TCglNHnMrJd_XwDVBPuO-14" value="int orderCounter" style="text;html=1;align=left;verticalAlign=middle;whiteSpace=wrap;rounded=0;" vertex="1" parent="TCglNHnMrJd_XwDVBPuO-8">
          <mxGeometry x="10" y="150" width="140" height="30" as="geometry" />
        </mxCell>
        <mxCell id="TCglNHnMrJd_XwDVBPuO-16" value="ShopSystem()" style="text;html=1;align=left;verticalAlign=middle;whiteSpace=wrap;rounded=0;" vertex="1" parent="TCglNHnMrJd_XwDVBPuO-8">
          <mxGeometry x="5" y="200" width="140" height="30" as="geometry" />
        </mxCell>
        <mxCell id="TCglNHnMrJd_XwDVBPuO-18" value="&lt;strong data-end=&quot;1327&quot; data-start=&quot;1311&quot;&gt;void Run()&lt;/strong&gt;" style="text;html=1;align=left;verticalAlign=middle;whiteSpace=wrap;rounded=0;" vertex="1" parent="TCglNHnMrJd_XwDVBPuO-8">
          <mxGeometry x="5" y="230" width="140" height="30" as="geometry" />
        </mxCell>
        <mxCell id="TCglNHnMrJd_XwDVBPuO-20" value="&lt;strong data-end=&quot;1428&quot; data-start=&quot;1409&quot;&gt;void SignIn()&lt;/strong&gt;" style="text;html=1;align=left;verticalAlign=middle;whiteSpace=wrap;rounded=0;" vertex="1" parent="TCglNHnMrJd_XwDVBPuO-8">
          <mxGeometry x="5" y="260" width="140" height="30" as="geometry" />
        </mxCell>
        <mxCell id="TCglNHnMrJd_XwDVBPuO-21" value="&lt;strong data-end=&quot;1484&quot; data-start=&quot;1465&quot;&gt;void SignUp()&lt;/strong&gt;" style="text;html=1;align=left;verticalAlign=middle;whiteSpace=wrap;rounded=0;" vertex="1" parent="TCglNHnMrJd_XwDVBPuO-8">
          <mxGeometry x="5" y="290" width="140" height="30" as="geometry" />
        </mxCell>
        <mxCell id="TCglNHnMrJd_XwDVBPuO-22" value="&lt;strong data-end=&quot;1563&quot; data-start=&quot;1538&quot;&gt;void CustomerMenu()&lt;/strong&gt;" style="text;html=1;align=left;verticalAlign=middle;whiteSpace=wrap;rounded=0;" vertex="1" parent="TCglNHnMrJd_XwDVBPuO-8">
          <mxGeometry x="5" y="320" width="140" height="30" as="geometry" />
        </mxCell>
        <mxCell id="TCglNHnMrJd_XwDVBPuO-23" value="&lt;strong data-end=&quot;1702&quot; data-start=&quot;1680&quot;&gt;void AdminMenu()&lt;/strong&gt;" style="text;html=1;align=left;verticalAlign=middle;whiteSpace=wrap;rounded=0;" vertex="1" parent="TCglNHnMrJd_XwDVBPuO-8">
          <mxGeometry x="5" y="350" width="140" height="30" as="geometry" />
        </mxCell>
        <mxCell id="TCglNHnMrJd_XwDVBPuO-24" value="&lt;strong data-end=&quot;1865&quot; data-start=&quot;1840&quot;&gt;void ViewProducts()&lt;/strong&gt;" style="text;html=1;align=left;verticalAlign=middle;whiteSpace=wrap;rounded=0;" vertex="1" parent="TCglNHnMrJd_XwDVBPuO-8">
          <mxGeometry x="5" y="380" width="140" height="30" as="geometry" />
        </mxCell>
        <mxCell id="TCglNHnMrJd_XwDVBPuO-25" value="&lt;strong data-end=&quot;1940&quot; data-start=&quot;1916&quot;&gt;void CreateOrder()&lt;/strong&gt;" style="text;html=1;align=left;verticalAlign=middle;whiteSpace=wrap;rounded=0;" vertex="1" parent="TCglNHnMrJd_XwDVBPuO-8">
          <mxGeometry x="5" y="410" width="140" height="30" as="geometry" />
        </mxCell>
      </root>
    </mxGraphModel>
  </diagram>
</mxfile>
